<?xml version="1.0" encoding="UTF-8"?>
<svg width="36px" height="36px" viewBox="0 0 36 36" version="1.1" xmlns="http://www.w3.org/2000/svg" xmlns:xlink="http://www.w3.org/1999/xlink">
    <!-- Generator: Sketch 59.1 (86144) - https://sketch.com -->
    <title>常用</title>
    <desc>Created with Sketch.</desc>
    <defs>
        <path d="M14.6213922,9.32842591 C14.6933411,9.3573053 14.7608202,9.39626436 14.821805,9.44413429 L19.7559996,13.3172249 C20.1737611,13.6451464 20.4738949,14.0997196 20.6113512,14.6127136 L22.9407226,23.3060461 C23.1746274,24.1789906 22.6565833,25.0762692 21.7836388,25.310174 L15.4612152,27.0042623 C14.5882707,27.2381671 13.690992,26.720123 13.4570872,25.8471785 L11.1277158,17.1538461 C10.9902595,16.640852 11.0228964,16.0971132 11.2207277,15.6042441 L13.5573203,9.78295195 C13.7256417,9.3636027 14.2020429,9.16010446 14.6213922,9.32842591 Z M15.0224894,12.722068 C14.1495448,12.9559728 13.6315008,13.8532515 13.8654055,14.726196 C14.0993103,15.5991406 14.996589,16.1171846 15.8695335,15.8832798 C16.742478,15.6493751 17.2605221,14.7520964 17.0266173,13.8791519 C16.7927125,13.0062073 15.8954339,12.4881633 15.0224894,12.722068 Z" id="path-1"></path>
        <filter x="-20.9%" y="-14.1%" width="158.6%" height="139.3%" filterUnits="objectBoundingBox" id="filter-2">
            <feOffset dx="1" dy="1" in="SourceAlpha" result="shadowOffsetOuter1"></feOffset>
            <feGaussianBlur stdDeviation="1" in="shadowOffsetOuter1" result="shadowBlurOuter1"></feGaussianBlur>
            <feColorMatrix values="0 0 0 0 0   0 0 0 0 0   0 0 0 0 0  0 0 0 0.101207386 0" type="matrix" in="shadowBlurOuter1"></feColorMatrix>
        </filter>
    </defs>
    <g id="页面-1" stroke="none" stroke-width="1" fill="none" fill-rule="evenodd">
        <g id="客户端设计风格备份-2" transform="translate(-94.000000, -312.000000)">
            <g id="常用1" transform="translate(94.000000, 312.000000)">
                <g id="编组">
                    <path d="M12.246573,0.000945708159 L23.4136545,0 C27.790201,0 29.3772425,0.455689364 30.9772425,1.31137873 C32.5772425,2.16706809 33.8329319,3.42275746 34.6886213,5.02275746 L34.8203979,5.27568993 C35.5910156,6.79754162 36,8.44014354 36,12.5863455 L36,23.4136545 L35.9962212,24.0819152 C35.9509247,27.9572939 35.4992744,29.4614531 34.6886213,30.9772425 C33.8329319,32.5772425 32.5772425,33.8329319 30.9772425,34.6886213 L30.7243101,34.8203979 C29.2024584,35.5910156 27.5598565,36 23.4136545,36 L12.5863455,36 L11.9180848,35.9962212 C8.04270609,35.9509247 6.53854693,35.4992744 5.02275746,34.6886213 C3.42275746,33.8329319 2.16706809,32.5772425 1.31137873,30.9772425 L1.1796021,30.7243101 C0.40898436,29.2024584 0,27.5598565 0,23.4136545 L0,12.5863455 C0,8.20979899 0.455689364,6.62275746 1.31137873,5.02275746 C2.16706809,3.42275746 3.42275746,2.16706809 5.02275746,1.31137873 L5.27568993,1.1796021 C6.75526796,0.430390408 8.34898105,0.0230003914 12.246573,0.000945708159 Z" id="矩形" fill="#636AF2"></path>
                    <path d="M14.3812413,9.52182701 L20.5909245,10.4089246 C21.1166773,10.4840322 21.6038874,10.7276372 21.9794251,11.1031749 L28.3433861,17.4671359 C28.9824259,18.1061757 28.9824259,19.1422638 28.3433861,19.7813036 L23.7150508,24.4096389 C23.0760111,25.0486786 22.0399229,25.0486786 21.4008832,24.4096389 L15.0369221,18.0456778 C14.6613844,17.6701401 14.4177794,17.1829301 14.3426718,16.6571773 L13.4555742,10.4474941 C13.3916703,10.0001662 13.7024967,9.58573099 14.1498245,9.52182701 C14.2265739,9.51086283 14.304492,9.51086283 14.3812413,9.52182701 Z" id="路径" fill="#FFFFFF" opacity="0.5"></path>
                    <g id="形状">
                        <use fill="black" fill-opacity="1" filter="url(#filter-2)" xlink:href="#path-1"></use>
                        <use fill="#FFFFFF" fill-rule="evenodd" xlink:href="#path-1"></use>
                    </g>
                    <rect id="矩形" x="0" y="0" width="36" height="36"></rect>
                </g>
            </g>
        </g>
    </g>
</svg>